<mxfile host="app.diagrams.net" modified="2023-12-01T18:24:37.776Z" agent="Mozilla/5.0 (X11; Linux x86_64) AppleWebKit/537.36 (KHTML, like Gecko) Chrome/116.0.5845.962 YaBrowser/23.9.1.962 Yowser/2.5 Safari/537.36" etag="pLuiIPfydzCAoPv_RWe4" version="22.1.5" type="device">
  <diagram name="Страница — 1" id="XQ3VEUXTgUhdQQfBeHWg">
    <mxGraphModel dx="832" dy="479" grid="1" gridSize="10" guides="1" tooltips="1" connect="1" arrows="1" fold="1" page="1" pageScale="1" pageWidth="827" pageHeight="1169" math="0" shadow="0">
      <root>
        <mxCell id="0" />
        <mxCell id="1" parent="0" />
        <mxCell id="paZSzxpRlTIBF0OgdoXP-9" style="edgeStyle=orthogonalEdgeStyle;rounded=0;orthogonalLoop=1;jettySize=auto;html=1;exitX=1;exitY=0.5;exitDx=0;exitDy=0;" edge="1" parent="1" source="paZSzxpRlTIBF0OgdoXP-1" target="paZSzxpRlTIBF0OgdoXP-3">
          <mxGeometry relative="1" as="geometry" />
        </mxCell>
        <mxCell id="paZSzxpRlTIBF0OgdoXP-12" style="edgeStyle=orthogonalEdgeStyle;rounded=0;orthogonalLoop=1;jettySize=auto;html=1;exitX=0.5;exitY=1;exitDx=0;exitDy=0;entryX=0.5;entryY=0;entryDx=0;entryDy=0;" edge="1" parent="1" source="paZSzxpRlTIBF0OgdoXP-1" target="paZSzxpRlTIBF0OgdoXP-5">
          <mxGeometry relative="1" as="geometry" />
        </mxCell>
        <mxCell id="paZSzxpRlTIBF0OgdoXP-1" value="" style="ellipse;whiteSpace=wrap;html=1;" vertex="1" parent="1">
          <mxGeometry x="354" y="210" width="120" height="80" as="geometry" />
        </mxCell>
        <mxCell id="paZSzxpRlTIBF0OgdoXP-2" value="SCAN" style="text;html=1;strokeColor=none;fillColor=none;align=center;verticalAlign=middle;whiteSpace=wrap;rounded=0;" vertex="1" parent="1">
          <mxGeometry x="384" y="235" width="60" height="30" as="geometry" />
        </mxCell>
        <mxCell id="paZSzxpRlTIBF0OgdoXP-11" style="edgeStyle=orthogonalEdgeStyle;rounded=0;orthogonalLoop=1;jettySize=auto;html=1;exitX=0.5;exitY=0;exitDx=0;exitDy=0;entryX=0.5;entryY=0;entryDx=0;entryDy=0;" edge="1" parent="1" source="paZSzxpRlTIBF0OgdoXP-3" target="paZSzxpRlTIBF0OgdoXP-1">
          <mxGeometry relative="1" as="geometry" />
        </mxCell>
        <mxCell id="paZSzxpRlTIBF0OgdoXP-3" value="" style="ellipse;whiteSpace=wrap;html=1;" vertex="1" parent="1">
          <mxGeometry x="600" y="210" width="120" height="80" as="geometry" />
        </mxCell>
        <mxCell id="paZSzxpRlTIBF0OgdoXP-4" value="CHECK" style="text;html=1;strokeColor=none;fillColor=none;align=center;verticalAlign=middle;whiteSpace=wrap;rounded=0;" vertex="1" parent="1">
          <mxGeometry x="630" y="235" width="60" height="30" as="geometry" />
        </mxCell>
        <mxCell id="paZSzxpRlTIBF0OgdoXP-5" value="" style="ellipse;whiteSpace=wrap;html=1;" vertex="1" parent="1">
          <mxGeometry x="354" y="380" width="120" height="80" as="geometry" />
        </mxCell>
        <mxCell id="paZSzxpRlTIBF0OgdoXP-6" value="LAST_CHECK" style="text;html=1;strokeColor=none;fillColor=none;align=center;verticalAlign=middle;whiteSpace=wrap;rounded=0;" vertex="1" parent="1">
          <mxGeometry x="384" y="405" width="60" height="30" as="geometry" />
        </mxCell>
        <mxCell id="paZSzxpRlTIBF0OgdoXP-18" style="edgeStyle=orthogonalEdgeStyle;rounded=0;orthogonalLoop=1;jettySize=auto;html=1;exitX=0.5;exitY=0;exitDx=0;exitDy=0;entryX=0.5;entryY=1;entryDx=0;entryDy=0;" edge="1" parent="1" source="paZSzxpRlTIBF0OgdoXP-7" target="paZSzxpRlTIBF0OgdoXP-16">
          <mxGeometry relative="1" as="geometry" />
        </mxCell>
        <mxCell id="paZSzxpRlTIBF0OgdoXP-7" value="" style="ellipse;whiteSpace=wrap;html=1;" vertex="1" parent="1">
          <mxGeometry x="120" y="290" width="120" height="80" as="geometry" />
        </mxCell>
        <mxCell id="paZSzxpRlTIBF0OgdoXP-8" value="OUTPUT" style="text;html=1;strokeColor=none;fillColor=none;align=center;verticalAlign=middle;whiteSpace=wrap;rounded=0;" vertex="1" parent="1">
          <mxGeometry x="150" y="315" width="60" height="30" as="geometry" />
        </mxCell>
        <mxCell id="paZSzxpRlTIBF0OgdoXP-13" value="if EOF" style="text;html=1;strokeColor=none;fillColor=none;align=center;verticalAlign=middle;whiteSpace=wrap;rounded=0;" vertex="1" parent="1">
          <mxGeometry x="414" y="315" width="60" height="30" as="geometry" />
        </mxCell>
        <mxCell id="paZSzxpRlTIBF0OgdoXP-14" value="if not EOF" style="text;html=1;strokeColor=none;fillColor=none;align=center;verticalAlign=middle;whiteSpace=wrap;rounded=0;" vertex="1" parent="1">
          <mxGeometry x="500" y="220" width="60" height="30" as="geometry" />
        </mxCell>
        <mxCell id="paZSzxpRlTIBF0OgdoXP-15" style="edgeStyle=orthogonalEdgeStyle;rounded=0;orthogonalLoop=1;jettySize=auto;html=1;exitX=0;exitY=0.5;exitDx=0;exitDy=0;entryX=0.442;entryY=1;entryDx=0;entryDy=0;entryPerimeter=0;" edge="1" parent="1" source="paZSzxpRlTIBF0OgdoXP-5" target="paZSzxpRlTIBF0OgdoXP-7">
          <mxGeometry relative="1" as="geometry" />
        </mxCell>
        <mxCell id="paZSzxpRlTIBF0OgdoXP-16" value="" style="ellipse;whiteSpace=wrap;html=1;" vertex="1" parent="1">
          <mxGeometry x="120" y="140" width="120" height="80" as="geometry" />
        </mxCell>
        <mxCell id="paZSzxpRlTIBF0OgdoXP-17" value="END" style="text;html=1;strokeColor=none;fillColor=none;align=center;verticalAlign=middle;whiteSpace=wrap;rounded=0;" vertex="1" parent="1">
          <mxGeometry x="150" y="165" width="60" height="30" as="geometry" />
        </mxCell>
      </root>
    </mxGraphModel>
  </diagram>
</mxfile>
